<svg width="1064" height="1010" viewBox="0 0 1064 1010" fill="none" xmlns="http://www.w3.org/2000/svg">
  <path d="M1013 82C1156.38 112.994 1195.58 18.5176 1234.82 -30.5562C1343.33 -107.008 1374.55 -26.2515 1376.6 23.6832C1384.62 269.913 1383.55 751.524 1315.07 708.132C1229.47 653.893 1135.84 826.943 1060.94 894.096C986.034 961.25 871.005 894.096 790.752 863.102C710.499 832.108 597.903 906.595 523 966C465 1012 287 1034 187 966C126.282 924.711 -5 844 43 672C78.0066 546.56 84.5287 467.929 28.3518 398.193C-27.8251 328.457 -33.1753 44.3458 327.962 -30.5562C689.099 -105.458 833.769 43.2576 1013 82Z" fill="#F3E0CB"/>
</svg>
